<svg xmlns="http://www.w3.org/2000/svg" version="1.1" xmlns:xlink="http://www.w3.org/1999/xlink" width="70" height="70" x="0" y="0" viewBox="0 0 512 512" style="enable-background:new 0 0 512 512" xml:space="preserve" class=""><g><path d="M512 15c0 8.285-6.715 15-15 15s-15-6.715-15-15 6.715-15 15-15 15 6.715 15 15zM458.54 230c-3.173 0-6.34-1.004-9.005-3L397 187.598 344.46 227a14.995 14.995 0 0 1-17.503.355 14.994 14.994 0 0 1-5.918-16.476l20.356-71.25-53.856-43.758A15.001 15.001 0 0 1 297 69.231h66.11l19.66-58.973A15.002 15.002 0 0 1 397 0a15.006 15.006 0 0 1 14.23 10.258l19.657 58.972H497c6.348 0 12.008 4 14.133 9.98a14.995 14.995 0 0 1-4.676 16.661l-53.855 43.758 20.359 71.25a14.996 14.996 0 0 1-5.922 16.476 14.967 14.967 0 0 1-8.5 2.645zM443.156 462c-3.172 0-6.34-1.004-9.004-3L397 431.137 359.848 459a14.995 14.995 0 0 1-17.504.355 14.998 14.998 0 0 1-5.922-16.476l14.59-51.059-38.469-31.257A14.997 14.997 0 0 1 322 333.922h46.883l13.887-41.664C384.813 286.133 390.543 282 397 282s12.188 4.133 14.23 10.258l13.887 41.664H472c6.352 0 12.012 4 14.137 9.98a15.001 15.001 0 0 1-4.676 16.66l-38.473 31.258 14.59 51.059a14.998 14.998 0 0 1-5.922 16.476 14.967 14.967 0 0 1-8.5 2.645zm0 0" fill="#f58433" opacity="1" data-original="#000000" class=""></path><path d="M162.98 512c-7.64 0-14.171-5.805-14.914-13.566-.203-2.125-4.796-52.88 10.278-121.997 8.847-40.558 22.683-79.109 41.129-114.582 23.101-44.43 53.515-84.101 90.39-117.906 6.106-5.594 15.598-5.183 21.196.922 5.597 6.11 5.183 15.598-.922 21.195-77.356 70.907-109.176 156.442-122.25 215.715-14.29 64.77-9.996 113.336-9.953 113.817.77 8.242-5.286 15.558-13.524 16.336-.48.046-.957.066-1.43.066zM117.012 512c-5.664 0-11.082-3.223-13.621-8.695-41.149-88.79-47.954-196.27-17.344-273.817 3.043-7.707 11.754-11.484 19.46-8.441 7.708 3.039 11.485 11.754 8.446 19.457-27.316 69.2-20.625 169.742 16.656 250.187 3.485 7.516.215 16.434-7.3 19.914a14.964 14.964 0 0 1-6.297 1.395zM30 497c0 8.285-6.715 15-15 15s-15-6.715-15-15 6.715-15 15-15 15 6.715 15 15zM307 287c0 8.285-6.715 15-15 15s-15-6.715-15-15 6.715-15 15-15 15 6.715 15 15zM233 114.852c-3.84 0-7.676-1.461-10.605-4.391-5.86-5.86-5.86-15.356 0-21.215 8.507-8.508 13.19-19.808 13.19-31.82 0-12.008-4.683-23.313-13.19-31.82-5.86-5.856-5.86-15.352 0-21.211 5.855-5.86 15.355-5.86 21.21 0 14.176 14.175 21.98 33.007 21.98 53.03 0 20.024-7.804 38.86-21.98 53.036A14.954 14.954 0 0 1 233 114.85zM214.02 512c-1.024 0-2.063-.105-3.106-.324-8.11-1.7-13.297-9.68-11.594-17.785.2-.946 5.043-23.438 21.04-46.875 21.558-31.59 53.09-50.254 91.187-53.965 8.25-.797 15.578 5.23 16.383 13.476.804 8.246-5.23 15.578-13.477 16.383-29.02 2.828-52.148 16.348-68.734 40.18-12.942 18.594-17.008 36.832-17.047 37.015C227.188 507.168 220.96 512 214.02 512zm0 0" fill="#f58433" opacity="1" data-original="#000000" class=""></path><path d="M152.309 220a14.987 14.987 0 0 1-9-3L100 184.52 56.691 217a15 15 0 0 1-23.421-16.121l16.898-59.137-44.625-36.254a15.005 15.005 0 0 1-4.68-16.66A15.002 15.002 0 0 1 15 78.848h54.574l16.196-48.59C87.813 24.133 93.543 20 100 20s12.188 4.133 14.23 10.258l16.196 48.59H185a14.998 14.998 0 0 1 9.46 26.64l-44.624 36.254 16.894 59.137A15.002 15.002 0 0 1 152.31 220zm0 0" fill="#f58433" opacity="1" data-original="#000000" class=""></path></g></svg>