<svg xmlns="http://www.w3.org/2000/svg" version="1.1" xmlns:xlink="http://www.w3.org/1999/xlink" width="70" height="70" x="0" y="0" viewBox="0 0 512 512" style="enable-background:new 0 0 512 512" xml:space="preserve" class=""><g><path d="M446.37 122c-36.25 0-65.64 29.39-65.64 65.63 0 53.7 65.64 113.37 65.64 113.37S512 241.33 512 187.63c0-36.24-29.39-65.63-65.63-65.63zm15 76h-30v-30h30zM65.64 122C29.39 122 0 151.39 0 187.63 0 241.33 65.64 301 65.64 301s65.63-59.67 65.63-113.37c0-36.24-29.39-65.63-65.63-65.63zm15 76h-30v-30h30zM22.47 470h128.44c.65-31.19 3.35-61.37 7.9-89.38H46.44C32.63 408.27 24.45 438.54 22.47 470zM90.54 319.54c-9.7 9.7-18.44 20.09-26.18 31.08H164.6c7.289-32.513 19.065-67.83 36.02-93.06-41.33 9.98-79.25 31.15-110.08 61.98zM316.61 350.62c-8.157-37.577-33.259-100.367-60.611-99.619-27.366-.728-52.45 62.043-60.609 99.619zM189.21 380.62c-4.78 27.72-7.61 57.95-8.29 89.38h150.16c-.68-31.43-3.51-61.66-8.29-89.38zM421.46 319.54c-30.83-30.83-68.75-52-110.08-61.98 16.965 25.255 28.722 60.522 36.02 93.06h100.24a236.664 236.664 0 0 0-26.18-31.08zM465.56 380.62H353.19c4.55 28.01 7.25 58.19 7.9 89.38h128.44c-1.98-31.46-10.16-61.73-23.97-89.38zM256 42c-36.25 0-65.63 29.39-65.63 65.63C190.37 161.33 256 221 256 221s65.63-59.67 65.63-113.37C321.63 71.39 292.25 42 256 42zm15 76h-30V88h30z" fill="#013047" opacity="1" data-original="#000000" class=""></path></g></svg>