<svg xmlns="http://www.w3.org/2000/svg" version="1.1" xmlns:xlink="http://www.w3.org/1999/xlink" width="70" height="70" x="0" y="0" viewBox="0 0 512 512" style="enable-background:new 0 0 512 512" xml:space="preserve" class=""><g><path d="M159.31 458.52v30.73H53.29c-6.46 0-11.76-5.27-11.76-11.74v-41.73c0-30.67 20.52-56.78 48.5-65.28l27.89 48.3c.85 1.5 2.32 2.35 4.05 2.35 1.7 0 3.17-.85 4.05-2.35l27.89-48.3c13.92 4.22 26.02 12.84 34.64 24.21-17.87 15.54-29.24 38.41-29.24 63.81zm262.66-88.01-27.89 48.3c-.85 1.5-2.32 2.35-4.05 2.35-1.7 0-3.17-.85-4.05-2.35l-27.89-48.3c-13.92 4.22-26.02 12.84-34.64 24.21 17.89 15.53 29.25 38.41 29.25 63.81v30.73h106.02c6.46 0 11.76-5.27 11.76-11.74v-41.73c-.01-30.67-20.53-56.78-48.51-65.28zm-77.47-71.1c0 25.06 20.47 45.52 45.52 45.52 25.09 0 45.52-20.47 45.52-45.52 0-25.09-20.44-45.52-45.52-45.52-25.06 0-45.52 20.44-45.52 45.52zm-222.52 45.53c25.06 0 45.52-20.47 45.52-45.52 0-25.09-20.47-45.52-45.52-45.52-25.09 0-45.52 20.44-45.52 45.52-.01 25.05 20.43 45.52 45.52 45.52zm165.97 48.3-27.89 48.33c-.85 1.47-2.32 2.32-4.05 2.32s-3.2-.85-4.05-2.32l-27.89-48.33c-27.98 8.53-48.47 34.64-48.47 65.28v41.73c0 6.46 5.27 11.76 11.74 11.76h137.37c6.46 0 11.74-5.3 11.74-11.76v-41.73c-.03-30.64-20.53-56.75-48.5-65.28zM256 276.62c-25.06 0-45.52 20.47-45.52 45.52 0 25.09 20.47 45.52 45.52 45.52 25.09 0 45.52-20.44 45.52-45.52 0-25.05-20.43-45.52-45.52-45.52zm-86.03-129.43 40.25 29.11c3.03 2.21 4.22 5.95 3.06 9.5L197.86 233c-1.16 3.57.06 7.28 3.06 9.5 3.03 2.18 6.94 2.18 9.98-.03l40.11-29.25c3.03-2.21 6.94-2.21 9.98 0l40.11 29.25c3.03 2.21 6.94 2.21 9.98.03 3.03-2.21 4.22-5.92 3.06-9.5l-15.42-47.2c-1.16-3.54.06-7.29 3.09-9.5l40.22-29.11c3.03-2.18 4.22-5.9 3.09-9.47-1.16-3.54-4.34-5.84-8.08-5.84l-49.66.08c-3.74 0-6.92-2.3-8.08-5.87l-15.25-47.25c-1.13-3.54-4.31-5.87-8.05-5.87s-6.92 2.32-8.05 5.87L232.7 126.1c-1.16 3.57-4.34 5.87-8.08 5.87l-49.66-.08c-3.74 0-6.92 2.3-8.08 5.84-1.14 3.57.08 7.28 3.09 9.46zM256 48.46c4.48 0 8.14-3.66 8.14-8.14V8.12c0-4.48-3.66-8.14-8.14-8.14s-8.14 3.66-8.14 8.14v32.2c0 4.48 3.66 8.14 8.14 8.14zm55.08 14.71c3.88 2.24 8.84.91 11.06-2.98l16.1-27.89c2.24-3.86.88-8.82-2.98-11.03a8.082 8.082 0 0 0-11.06 2.98l-16.1 27.86c-2.21 3.89-.88 8.85 2.98 11.06zm51.36 43.29 27.86-16.1a8.112 8.112 0 0 0 3-11.06c-2.24-3.85-7.2-5.22-11.06-2.98l-27.89 16.1c-3.88 2.21-5.22 7.17-2.98 11.06 2.23 3.86 7.19 5.22 11.07 2.98zM189.87 60.23c2.24 3.88 7.2 5.19 11.08 2.95 3.86-2.24 5.19-7.2 2.95-11.08l-16.1-27.86c-2.24-3.88-7.2-5.22-11.08-2.95-3.88 2.24-5.19 7.2-2.95 11.06zm-68.18 30.13 27.86 16.1c3.88 2.24 8.84.88 11.06-2.98 2.24-3.88.91-8.84-2.98-11.06l-27.89-16.1c-3.86-2.24-8.82-.88-11.06 2.98a8.133 8.133 0 0 0 3.01 11.06z" fill="#f58433" opacity="1" data-original="#000000"></path></g></svg>