<svg xmlns="http://www.w3.org/2000/svg" version="1.1" xmlns:xlink="http://www.w3.org/1999/xlink" width="70" height="70" x="0" y="0" viewBox="0 0 605.625 605.625" style="enable-background:new 0 0 512 512" xml:space="preserve" class=""><g><g fill-rule="evenodd" clip-rule="evenodd"><path d="M0 193.386v-51.491a28.687 28.687 0 0 1 15.829-25.647c.013-.006.019-.006.025-.013 191.218-95.262 382.436-92.807 573.648.019.006.006.013.006.019.013a28.672 28.672 0 0 1 16.097 25.761c0 13.617.006 36.025.006 51.351a22.02 22.02 0 0 0-.963-.516 816.569 816.569 0 0 0-18.162-8.874c0-14.133-.006-30.925-.006-41.948v-.006a9.56 9.56 0 0 0-5.361-8.581c-18.781-9.116-37.562-17.34-56.33-24.646v49.043a737.424 737.424 0 0 0-19.125-6.834v-49.349c-29.032-10.353-58.07-18.545-87.089-24.531v50.388a631.014 631.014 0 0 0-19.125-3.481v-50.54c-29.025-5.023-58.057-7.848-87.089-8.44v50.904a577.933 577.933 0 0 0-19.125-.064V64.993c-29.025.389-58.057 3.015-87.089 7.905v50.56a608.21 608.21 0 0 0-19.125 3.391V76.443c-29.038 5.891-58.07 14.044-87.089 24.493v49.323a694.207 694.207 0 0 0-19.125 6.898v-48.998c-18.825 7.433-37.625 15.823-56.425 25.188a9.566 9.566 0 0 0-5.272 8.549v41.865A768.099 768.099 0 0 0 .777 192.96c-.267.132-.522.273-.777.426z" fill="#013047" opacity="1" data-original="#000000" class=""></path><path d="M107.98 427.501H9.563v-217.56c195.502-101.139 390.998-98.411 586.5 0v217.56h-98.417c-8.115-100.444-92.31-179.546-194.833-179.546S116.095 327.057 107.98 427.501zM316.736 474.58c-19.954 0-38.467-6.209-53.703-16.805a9.555 9.555 0 0 0-10.914 0c-15.236 10.595-33.749 16.805-53.703 16.805-19.947 0-38.46-6.209-53.697-16.805a9.565 9.565 0 0 0-10.92 0c-15.23 10.595-33.743 16.805-53.697 16.805-5.272 0-9.562 4.29-9.562 9.562 0 5.279 4.29 9.562 9.562 9.562 21.675 0 41.941-6.095 59.16-16.664 17.219 10.57 37.485 16.664 59.154 16.664 21.675 0 41.941-6.095 59.16-16.664 17.219 10.57 37.485 16.664 59.16 16.664 5.272 0 9.562-4.284 9.562-9.562 0-5.271-4.29-9.562-9.562-9.562zM497.543 540.791c-19.947 0-38.46-6.216-53.697-16.811a9.565 9.565 0 0 0-10.92 0c-15.236 10.595-33.743 16.811-53.697 16.811s-38.46-6.216-53.697-16.811a9.565 9.565 0 0 0-10.92 0c-15.236 10.595-33.749 16.811-53.697 16.811-5.278 0-9.562 4.284-9.562 9.562s4.284 9.562 9.562 9.562c21.675 0 41.935-6.094 59.16-16.664 17.219 10.57 37.479 16.664 59.154 16.664s41.935-6.094 59.16-16.664c17.219 10.57 37.479 16.664 59.154 16.664 5.279 0 9.562-4.284 9.562-9.562s-4.283-9.562-9.562-9.562z" fill="#013047" opacity="1" data-original="#000000" class=""></path></g></g></svg>