<svg xmlns="http://www.w3.org/2000/svg" version="1.1" xmlns:xlink="http://www.w3.org/1999/xlink" width="512" height="512" x="0" y="0" viewBox="0 0 32 32" style="enable-background:new 0 0 512 512" xml:space="preserve" class=""><g><g fill-rule="evenodd" clip-rule="evenodd"><path d="M15.979 30.487c-1.917 0-3.835.002-5.752 0-1.213-.004-2.406-.154-3.562-.53-2.634-.858-4.21-2.69-4.816-5.356-.185-.809-.309-1.648-.314-2.477a932.04 932.04 0 0 1-.002-12.401 9.637 9.637 0 0 1 .821-3.874c.986-2.212 2.742-3.463 5.05-4.015 1.029-.245 2.075-.329 3.129-.328 3.741.002 7.484 0 11.225.006 1.402.001 2.777.193 4.087.711 2.379.941 3.759 2.737 4.311 5.188.177.789.303 1.608.31 2.415.03 4.143.028 8.289.003 12.433a9.608 9.608 0 0 1-.828 3.902c-.989 2.212-2.751 3.454-5.059 4.004-1.059.252-2.135.328-3.221.326-1.793-.005-3.587-.002-5.381-.002l-.001-.002zm.012-26.985v-.015c-1.763 0-3.526-.03-5.29.012-.932.021-1.877.085-2.789.267-2.133.424-3.536 1.703-4.073 3.832-.182.724-.314 1.482-.322 2.225a970.886 970.886 0 0 0-.007 12.188c.003.693.106 1.397.25 2.08.427 2.016 1.581 3.431 3.604 3.996.796.223 1.638.383 2.462.392 3.927.044 7.855.04 11.783.019a12.857 12.857 0 0 0 2.482-.263c2.046-.417 3.458-1.606 4.016-3.657.209-.77.367-1.578.374-2.371.038-4.083.031-8.166.01-12.249-.004-.684-.107-1.378-.25-2.049-.428-2.017-1.582-3.43-3.604-3.998a10.072 10.072 0 0 0-2.429-.391c-2.072-.055-4.145-.018-6.217-.018z" fill="#f58533" opacity="1" data-original="#000000" class=""></path><path d="M15.832 12.097c.755.001 1.295.238 1.74.667 1.643 1.592 3.277 3.191 4.91 4.795.423.415.432 1.011.047 1.41-.394.411-1 .416-1.435-.006-1.543-1.502-3.082-3.01-4.623-4.514-.508-.497-.55-.494-1.063.006-1.535 1.496-3.066 2.994-4.605 4.487-.592.577-1.479.364-1.694-.399a.914.914 0 0 1 .246-.941 682.526 682.526 0 0 1 5.028-4.893c.427-.409.966-.62 1.449-.612z" fill="#f58533" opacity="1" data-original="#000000" class=""></path></g></g></svg>