<svg xmlns="http://www.w3.org/2000/svg" version="1.1" xmlns:xlink="http://www.w3.org/1999/xlink" width="512" height="512" x="0" y="0" viewBox="0 0 128 128" style="enable-background:new 0 0 512 512" xml:space="preserve" class=""><g><circle cx="64" cy="64" r="64" fill="#f58533" opacity="1" data-original="#e21a20" class=""></circle><path fill="#ffffff" fill-rule="evenodd" d="M98.62 53.92c-.49-6.75-1.72-13.72-10.35-14.23a426.5 426.5 0 0 0-48.55 0c-8.63.5-9.86 7.48-10.35 14.23a135 135 0 0 0 0 20.16c.49 6.75 1.72 13.72 10.35 14.23a426.5 426.5 0 0 0 48.55 0c8.63-.5 9.86-7.48 10.35-14.23a135 135 0 0 0 0-20.16zM57 73V53l19 10z" opacity="1" data-original="#ffffff"></path></g></svg>